<svg width="282" height="58" viewBox="0 0 282 58" fill="none" xmlns="http://www.w3.org/2000/svg">
<rect width="282" height="58" rx="29" fill="#FFC13B"/>
<path d="M38.38 22.72V37H41.52V31.1H47.5V28.66H41.52V25.36H48.42V22.72H38.38ZM52.2355 22.72V37H55.3755V22.72H52.2355ZM60.1339 22.72V37H63.0739V27.44H63.1139L69.0539 37H72.1939V22.72H69.2539V32.3H69.2139L63.2539 22.72H60.1339ZM80.0981 34.36V25.36H82.3381C83.1115 25.36 83.7581 25.4733 84.2781 25.7C84.8115 25.9133 85.2381 26.2267 85.5581 26.64C85.8781 27.0533 86.1048 27.5533 86.2381 28.14C86.3848 28.7133 86.4581 29.36 86.4581 30.08C86.4581 30.8667 86.3581 31.5333 86.1581 32.08C85.9581 32.6267 85.6915 33.0733 85.3581 33.42C85.0248 33.7533 84.6448 33.9933 84.2181 34.14C83.7915 34.2867 83.3515 34.36 82.8981 34.36H80.0981ZM76.9581 22.72V37H83.1181C84.2115 37 85.1581 36.82 85.9581 36.46C86.7715 36.0867 87.4448 35.58 87.9781 34.94C88.5248 34.3 88.9315 33.54 89.1981 32.66C89.4648 31.78 89.5981 30.82 89.5981 29.78C89.5981 28.5933 89.4315 27.56 89.0981 26.68C88.7781 25.8 88.3248 25.0667 87.7381 24.48C87.1648 23.8933 86.4781 23.4533 85.6781 23.16C84.8915 22.8667 84.0381 22.72 83.1181 22.72H76.9581ZM104.949 31.48L106.809 26.24H106.849L108.649 31.48H104.949ZM105.249 22.72L99.8487 37H103.009L104.129 33.82H109.469L110.549 37H113.809L108.469 22.72H105.249ZM117.04 22.72V37H119.98V27.44H120.02L125.96 37H129.1V22.72H126.16V32.3H126.12L120.16 22.72H117.04ZM145.031 31.48L146.891 26.24H146.931L148.731 31.48H145.031ZM145.331 22.72L139.931 37H143.091L144.211 33.82H149.551L150.631 37H153.891L148.551 22.72H145.331ZM166.642 27.52H169.682C169.589 26.6933 169.362 25.96 169.002 25.32C168.642 24.68 168.182 24.1467 167.622 23.72C167.076 23.28 166.449 22.9467 165.742 22.72C165.049 22.4933 164.309 22.38 163.522 22.38C162.429 22.38 161.442 22.5733 160.562 22.96C159.696 23.3467 158.962 23.88 158.362 24.56C157.762 25.24 157.302 26.04 156.982 26.96C156.662 27.8667 156.502 28.8533 156.502 29.92C156.502 30.96 156.662 31.9333 156.982 32.84C157.302 33.7333 157.762 34.5133 158.362 35.18C158.962 35.8467 159.696 36.3733 160.562 36.76C161.442 37.1333 162.429 37.32 163.522 37.32C164.402 37.32 165.209 37.1867 165.942 36.92C166.676 36.6533 167.316 36.2667 167.862 35.76C168.409 35.2533 168.849 34.64 169.182 33.92C169.516 33.2 169.722 32.3933 169.802 31.5H166.762C166.642 32.46 166.309 33.2333 165.762 33.82C165.229 34.4067 164.482 34.7 163.522 34.7C162.816 34.7 162.216 34.5667 161.722 34.3C161.229 34.02 160.829 33.6533 160.522 33.2C160.216 32.7467 159.989 32.24 159.842 31.68C159.709 31.1067 159.642 30.52 159.642 29.92C159.642 29.2933 159.709 28.6867 159.842 28.1C159.989 27.5133 160.216 26.9933 160.522 26.54C160.829 26.0733 161.229 25.7067 161.722 25.44C162.216 25.16 162.816 25.02 163.522 25.02C163.909 25.02 164.276 25.0867 164.622 25.22C164.982 25.34 165.302 25.5133 165.582 25.74C165.862 25.9667 166.096 26.2333 166.282 26.54C166.469 26.8333 166.589 27.16 166.642 27.52ZM177.106 25.36V37H180.246V25.36H184.526V22.72H172.826V25.36H177.106ZM188.173 22.72V37H191.313V22.72H188.173ZM202.711 37L207.451 22.72H204.211L200.991 32.76H200.951L197.771 22.72H194.551L199.171 37H202.711ZM210.669 22.72V37H213.809V22.72H210.669ZM221.728 25.36V37H224.868V25.36H229.148V22.72H217.448V25.36H221.728ZM236.494 31.44V37H239.634V31.52L244.934 22.72H241.434L238.114 28.36L234.774 22.72H231.254L236.494 31.44Z" fill="#12100E"/>
</svg>
