<svg width="138" height="58" viewBox="0 0 138 58" fill="none" xmlns="http://www.w3.org/2000/svg">
<rect width="138" height="58" rx="29" fill="#418EA3"/>
<path d="M41.52 29.18V25.16H44.96C45.68 25.16 46.22 25.32 46.58 25.64C46.94 25.9467 47.12 26.4467 47.12 27.14C47.12 27.86 46.94 28.38 46.58 28.7C46.22 29.02 45.68 29.18 44.96 29.18H41.52ZM38.38 22.72V37H41.52V31.42H44.66C45.4467 31.42 46.0133 31.5933 46.36 31.94C46.7067 32.2867 46.9333 32.8333 47.04 33.58C47.12 34.1533 47.18 34.7533 47.22 35.38C47.26 36.0067 47.3667 36.5467 47.54 37H50.68C50.5333 36.8 50.42 36.56 50.34 36.28C50.2733 35.9867 50.22 35.68 50.18 35.36C50.1533 35.04 50.1333 34.7267 50.12 34.42C50.1067 34.1133 50.0933 33.8467 50.08 33.62C50.0533 33.26 50 32.9 49.92 32.54C49.8533 32.18 49.74 31.8533 49.58 31.56C49.42 31.2533 49.2133 30.9933 48.96 30.78C48.7067 30.5533 48.3867 30.3867 48 30.28V30.24C48.8 29.92 49.3733 29.4533 49.72 28.84C50.08 28.2267 50.26 27.5 50.26 26.66C50.26 26.1133 50.16 25.6067 49.96 25.14C49.7733 24.66 49.4933 24.24 49.12 23.88C48.76 23.52 48.32 23.24 47.8 23.04C47.2933 22.8267 46.72 22.72 46.08 22.72H38.38ZM54.8136 22.72V37H65.6536V34.36H57.9536V30.86H64.8736V28.42H57.9536V25.36H65.4936V22.72H54.8136ZM72.9223 34.36V25.36H75.1623C75.9357 25.36 76.5823 25.4733 77.1023 25.7C77.6357 25.9133 78.0623 26.2267 78.3823 26.64C78.7023 27.0533 78.929 27.5533 79.0623 28.14C79.209 28.7133 79.2823 29.36 79.2823 30.08C79.2823 30.8667 79.1823 31.5333 78.9823 32.08C78.7823 32.6267 78.5157 33.0733 78.1823 33.42C77.849 33.7533 77.469 33.9933 77.0423 34.14C76.6157 34.2867 76.1757 34.36 75.7223 34.36H72.9223ZM69.7823 22.72V37H75.9423C77.0357 37 77.9823 36.82 78.7823 36.46C79.5957 36.0867 80.269 35.58 80.8023 34.94C81.349 34.3 81.7557 33.54 82.0223 32.66C82.289 31.78 82.4223 30.82 82.4223 29.78C82.4223 28.5933 82.2557 27.56 81.9223 26.68C81.6023 25.8 81.149 25.0667 80.5623 24.48C79.989 23.8933 79.3023 23.4533 78.5023 23.16C77.7157 22.8667 76.8623 22.72 75.9423 22.72H69.7823ZM89.1266 29.92C89.1266 29.2933 89.1932 28.6867 89.3266 28.1C89.4732 27.5133 89.6999 26.9933 90.0066 26.54C90.3132 26.0733 90.7132 25.7067 91.2066 25.44C91.6999 25.16 92.2999 25.02 93.0066 25.02C93.7132 25.02 94.3132 25.16 94.8066 25.44C95.2999 25.7067 95.6999 26.0733 96.0066 26.54C96.3132 26.9933 96.5332 27.5133 96.6666 28.1C96.8132 28.6867 96.8866 29.2933 96.8866 29.92C96.8866 30.52 96.8132 31.1067 96.6666 31.68C96.5332 32.24 96.3132 32.7467 96.0066 33.2C95.6999 33.6533 95.2999 34.02 94.8066 34.3C94.3132 34.5667 93.7132 34.7 93.0066 34.7C92.2999 34.7 91.6999 34.5667 91.2066 34.3C90.7132 34.02 90.3132 33.6533 90.0066 33.2C89.6999 32.7467 89.4732 32.24 89.3266 31.68C89.1932 31.1067 89.1266 30.52 89.1266 29.92ZM85.9866 29.92C85.9866 30.96 86.1466 31.9333 86.4666 32.84C86.7866 33.7333 87.2466 34.5133 87.8466 35.18C88.4466 35.8467 89.1799 36.3733 90.0466 36.76C90.9266 37.1333 91.9132 37.32 93.0066 37.32C94.1132 37.32 95.0999 37.1333 95.9666 36.76C96.8332 36.3733 97.5666 35.8467 98.1666 35.18C98.7666 34.5133 99.2266 33.7333 99.5466 32.84C99.8666 31.9333 100.027 30.96 100.027 29.92C100.027 28.8533 99.8666 27.8667 99.5466 26.96C99.2266 26.04 98.7666 25.24 98.1666 24.56C97.5666 23.88 96.8332 23.3467 95.9666 22.96C95.0999 22.5733 94.1132 22.38 93.0066 22.38C91.9132 22.38 90.9266 22.5733 90.0466 22.96C89.1799 23.3467 88.4466 23.88 87.8466 24.56C87.2466 25.24 86.7866 26.04 86.4666 26.96C86.1466 27.8667 85.9866 28.8533 85.9866 29.92Z" fill="#FFFCF3"/>
</svg>
