<svg width="260" height="58" viewBox="0 0 260 58" fill="none" xmlns="http://www.w3.org/2000/svg">
<rect width="260" height="58" rx="29" fill="#1E3D59"/>
<path d="M40.52 32.26H37.48C37.4667 33.14 37.6267 33.9 37.96 34.54C38.2933 35.18 38.74 35.7067 39.3 36.12C39.8733 36.5333 40.5267 36.8333 41.26 37.02C42.0067 37.22 42.7733 37.32 43.56 37.32C44.5333 37.32 45.3867 37.2067 46.12 36.98C46.8667 36.7533 47.4867 36.44 47.98 36.04C48.4867 35.6267 48.8667 35.14 49.12 34.58C49.3733 34.02 49.5 33.4133 49.5 32.76C49.5 31.96 49.3267 31.3067 48.98 30.8C48.6467 30.28 48.2467 29.8667 47.78 29.56C47.3133 29.2533 46.84 29.0333 46.36 28.9C45.8933 28.7533 45.5267 28.6533 45.26 28.6C44.3667 28.3733 43.64 28.1867 43.08 28.04C42.5333 27.8933 42.1 27.7467 41.78 27.6C41.4733 27.4533 41.2667 27.2933 41.16 27.12C41.0533 26.9467 41 26.72 41 26.44C41 26.1333 41.0667 25.88 41.2 25.68C41.3333 25.48 41.5 25.3133 41.7 25.18C41.9133 25.0467 42.1467 24.9533 42.4 24.9C42.6533 24.8467 42.9067 24.82 43.16 24.82C43.5467 24.82 43.9 24.8533 44.22 24.92C44.5533 24.9867 44.8467 25.1 45.1 25.26C45.3533 25.42 45.5533 25.64 45.7 25.92C45.86 26.2 45.9533 26.5533 45.98 26.98H49.02C49.02 26.1533 48.86 25.4533 48.54 24.88C48.2333 24.2933 47.8133 23.8133 47.28 23.44C46.7467 23.0667 46.1333 22.8 45.44 22.64C44.76 22.4667 44.0467 22.38 43.3 22.38C42.66 22.38 42.02 22.4667 41.38 22.64C40.74 22.8133 40.1667 23.08 39.66 23.44C39.1533 23.8 38.74 24.2533 38.42 24.8C38.1133 25.3333 37.96 25.9667 37.96 26.7C37.96 27.3533 38.08 27.9133 38.32 28.38C38.5733 28.8333 38.9 29.2133 39.3 29.52C39.7 29.8267 40.1533 30.08 40.66 30.28C41.1667 30.4667 41.6867 30.6267 42.22 30.76C42.74 30.9067 43.2533 31.04 43.76 31.16C44.2667 31.28 44.72 31.42 45.12 31.58C45.52 31.74 45.84 31.94 46.08 32.18C46.3333 32.42 46.46 32.7333 46.46 33.12C46.46 33.48 46.3667 33.78 46.18 34.02C45.9933 34.2467 45.76 34.4267 45.48 34.56C45.2 34.6933 44.9 34.7867 44.58 34.84C44.26 34.88 43.96 34.9 43.68 34.9C43.2667 34.9 42.8667 34.8533 42.48 34.76C42.0933 34.6533 41.7533 34.5 41.46 34.3C41.18 34.0867 40.9533 33.8133 40.78 33.48C40.6067 33.1467 40.52 32.74 40.52 32.26ZM56.5283 25.36V37H59.6683V25.36H63.9483V22.72H52.2483V25.36H56.5283ZM69.3589 31.48L71.2189 26.24H71.2589L73.0589 31.48H69.3589ZM69.6589 22.72L64.2589 37H67.4189L68.5389 33.82H73.8789L74.9589 37H78.2189L72.8789 22.72H69.6589ZM84.5903 29.18V25.16H88.0303C88.7503 25.16 89.2903 25.32 89.6503 25.64C90.0103 25.9467 90.1903 26.4467 90.1903 27.14C90.1903 27.86 90.0103 28.38 89.6503 28.7C89.2903 29.02 88.7503 29.18 88.0303 29.18H84.5903ZM81.4503 22.72V37H84.5903V31.42H87.7303C88.517 31.42 89.0836 31.5933 89.4303 31.94C89.777 32.2867 90.0036 32.8333 90.1103 33.58C90.1903 34.1533 90.2503 34.7533 90.2903 35.38C90.3303 36.0067 90.437 36.5467 90.6103 37H93.7503C93.6036 36.8 93.4903 36.56 93.4103 36.28C93.3436 35.9867 93.2903 35.68 93.2503 35.36C93.2236 35.04 93.2036 34.7267 93.1903 34.42C93.177 34.1133 93.1636 33.8467 93.1503 33.62C93.1236 33.26 93.0703 32.9 92.9903 32.54C92.9236 32.18 92.8103 31.8533 92.6503 31.56C92.4903 31.2533 92.2836 30.9933 92.0303 30.78C91.777 30.5533 91.457 30.3867 91.0703 30.28V30.24C91.8703 29.92 92.4436 29.4533 92.7903 28.84C93.1503 28.2267 93.3303 27.5 93.3303 26.66C93.3303 26.1133 93.2303 25.6067 93.0303 25.14C92.8436 24.66 92.5636 24.24 92.1903 23.88C91.8303 23.52 91.3903 23.24 90.8703 23.04C90.3636 22.8267 89.7903 22.72 89.1503 22.72H81.4503ZM100.692 25.36V37H103.832V25.36H108.112V22.72H96.4123V25.36H100.692ZM122.925 31.48L124.785 26.24H124.825L126.625 31.48H122.925ZM123.225 22.72L117.825 37H120.985L122.105 33.82H127.445L128.525 37H131.785L126.445 22.72H123.225ZM144.537 27.52H147.577C147.483 26.6933 147.257 25.96 146.897 25.32C146.537 24.68 146.077 24.1467 145.517 23.72C144.97 23.28 144.343 22.9467 143.637 22.72C142.943 22.4933 142.203 22.38 141.417 22.38C140.323 22.38 139.337 22.5733 138.457 22.96C137.59 23.3467 136.857 23.88 136.257 24.56C135.657 25.24 135.197 26.04 134.877 26.96C134.557 27.8667 134.397 28.8533 134.397 29.92C134.397 30.96 134.557 31.9333 134.877 32.84C135.197 33.7333 135.657 34.5133 136.257 35.18C136.857 35.8467 137.59 36.3733 138.457 36.76C139.337 37.1333 140.323 37.32 141.417 37.32C142.297 37.32 143.103 37.1867 143.837 36.92C144.57 36.6533 145.21 36.2667 145.757 35.76C146.303 35.2533 146.743 34.64 147.077 33.92C147.41 33.2 147.617 32.3933 147.697 31.5H144.657C144.537 32.46 144.203 33.2333 143.657 33.82C143.123 34.4067 142.377 34.7 141.417 34.7C140.71 34.7 140.11 34.5667 139.617 34.3C139.123 34.02 138.723 33.6533 138.417 33.2C138.11 32.7467 137.883 32.24 137.737 31.68C137.603 31.1067 137.537 30.52 137.537 29.92C137.537 29.2933 137.603 28.6867 137.737 28.1C137.883 27.5133 138.11 26.9933 138.417 26.54C138.723 26.0733 139.123 25.7067 139.617 25.44C140.11 25.16 140.71 25.02 141.417 25.02C141.803 25.02 142.17 25.0867 142.517 25.22C142.877 25.34 143.197 25.5133 143.477 25.74C143.757 25.9667 143.99 26.2333 144.177 26.54C144.363 26.8333 144.483 27.16 144.537 27.52ZM155.001 25.36V37H158.141V25.36H162.421V22.72H150.721V25.36H155.001ZM166.068 22.72V37H169.208V22.72H166.068ZM180.606 37L185.346 22.72H182.106L178.886 32.76H178.846L175.666 22.72H172.446L177.066 37H180.606ZM188.564 22.72V37H191.704V22.72H188.564ZM199.622 25.36V37H202.762V25.36H207.042V22.72H195.342V25.36H199.622ZM214.389 31.44V37H217.529V31.52L222.829 22.72H219.329L216.009 28.36L212.669 22.72H209.149L214.389 31.44Z" fill="#FFFCF3"/>
</svg>
