<svg width="112" height="58" viewBox="0 0 112 58" fill="none" xmlns="http://www.w3.org/2000/svg">
<rect x="0.5" width="111" height="58" rx="29" fill="#FFC13B"/>
<path d="M49.2 35.38L49.52 37H51.52V29.28H45.52V31.62H48.68C48.5867 32.62 48.2533 33.3867 47.68 33.92C47.12 34.44 46.32 34.7 45.28 34.7C44.5733 34.7 43.9733 34.5667 43.48 34.3C42.9867 34.02 42.5867 33.6533 42.28 33.2C41.9733 32.7467 41.7467 32.24 41.6 31.68C41.4667 31.1067 41.4 30.52 41.4 29.92C41.4 29.2933 41.4667 28.6867 41.6 28.1C41.7467 27.5133 41.9733 26.9933 42.28 26.54C42.5867 26.0733 42.9867 25.7067 43.48 25.44C43.9733 25.16 44.5733 25.02 45.28 25.02C46.04 25.02 46.6867 25.22 47.22 25.62C47.7533 26.02 48.1133 26.62 48.3 27.42H51.3C51.22 26.6067 51 25.8867 50.64 25.26C50.28 24.6333 49.82 24.1067 49.26 23.68C48.7133 23.2533 48.0933 22.9333 47.4 22.72C46.72 22.4933 46.0133 22.38 45.28 22.38C44.1867 22.38 43.2 22.5733 42.32 22.96C41.4533 23.3467 40.72 23.88 40.12 24.56C39.52 25.24 39.06 26.04 38.74 26.96C38.42 27.8667 38.26 28.8533 38.26 29.92C38.26 30.96 38.42 31.9333 38.74 32.84C39.06 33.7333 39.52 34.5133 40.12 35.18C40.72 35.8467 41.4533 36.3733 42.32 36.76C43.2 37.1333 44.1867 37.32 45.28 37.32C45.9733 37.32 46.66 37.18 47.34 36.9C48.02 36.6067 48.64 36.1 49.2 35.38ZM56.5758 29.92C56.5758 29.2933 56.6424 28.6867 56.7758 28.1C56.9224 27.5133 57.1491 26.9933 57.4558 26.54C57.7624 26.0733 58.1624 25.7067 58.6558 25.44C59.1491 25.16 59.7491 25.02 60.4558 25.02C61.1624 25.02 61.7624 25.16 62.2558 25.44C62.7491 25.7067 63.1491 26.0733 63.4558 26.54C63.7624 26.9933 63.9824 27.5133 64.1158 28.1C64.2624 28.6867 64.3358 29.2933 64.3358 29.92C64.3358 30.52 64.2624 31.1067 64.1158 31.68C63.9824 32.24 63.7624 32.7467 63.4558 33.2C63.1491 33.6533 62.7491 34.02 62.2558 34.3C61.7624 34.5667 61.1624 34.7 60.4558 34.7C59.7491 34.7 59.1491 34.5667 58.6558 34.3C58.1624 34.02 57.7624 33.6533 57.4558 33.2C57.1491 32.7467 56.9224 32.24 56.7758 31.68C56.6424 31.1067 56.5758 30.52 56.5758 29.92ZM53.4358 29.92C53.4358 30.96 53.5958 31.9333 53.9158 32.84C54.2358 33.7333 54.6958 34.5133 55.2958 35.18C55.8958 35.8467 56.6291 36.3733 57.4958 36.76C58.3758 37.1333 59.3624 37.32 60.4558 37.32C61.5624 37.32 62.5491 37.1333 63.4158 36.76C64.2824 36.3733 65.0158 35.8467 65.6158 35.18C66.2158 34.5133 66.6758 33.7333 66.9958 32.84C67.3158 31.9333 67.4758 30.96 67.4758 29.92C67.4758 28.8533 67.3158 27.8667 66.9958 26.96C66.6758 26.04 66.2158 25.24 65.6158 24.56C65.0158 23.88 64.2824 23.3467 63.4158 22.96C62.5491 22.5733 61.5624 22.38 60.4558 22.38C59.3624 22.38 58.3758 22.5733 57.4958 22.96C56.6291 23.3467 55.8958 23.88 55.2958 24.56C54.6958 25.24 54.2358 26.04 53.9158 26.96C53.5958 27.8667 53.4358 28.8533 53.4358 29.92ZM69.4622 33.92V37H72.6022V33.92H69.4622ZM72.5022 26.56V22.72H69.5422V26.56L70.3022 32.72H71.7222L72.5022 26.56Z" fill="#12100E"/>
</svg>
